<svg xmlns="http://www.w3.org/2000/svg" xmlns:xlink="http://www.w3.org/1999/xlink" id="Layer_1" x="0px" y="0px" viewBox="0 0 2019 364.8" style="enable-background:new 0 0 2019 364.8;" xml:space="preserve"><style type="text/css">	.st0{fill:#FFFFFF;}</style><g>	<path class="st0" d="M412.8,364.1c-10.1-15.1-20.3-30-30.2-45.2c-2.7-4.1-5.6-5.8-10.5-5.6c-35.5,1-67.3-9.8-95-31.8  c-32-25.4-50.6-58.5-55.3-99.2c-7.1-60.6,24.3-117.8,78-146.6C353.1,6.9,421,15.2,466.5,55.9c29,25.9,46.3,58.3,48.9,96.7  c4.3,62.8-22.1,110.6-76.3,142.9c-5.1,3-5,2.8-1.6,7.9c13.5,20.2,26.9,40.4,40.3,60.6C456.1,364.1,434.4,364.1,412.8,364.1z   M368.2,79.8c-3.1,0.3-6.3,0.6-9.4,1.1c-29.8,4-51.7,19.6-63.9,46.6c-12.5,27.8-10.2,55.4,7.9,80.3c19.1,26.2,39.3,51.5,59.2,77.1  c6.6,8.5,6.7,8.3,13.3-0.3c18.8-24.5,37.6-49,56.6-73.5c13.4-17.4,19.2-36.8,17-58.7C444.8,111.6,409.7,80,368.2,79.8z"></path>	<path class="st0" d="M2019,218.5c-3.1,12.6-6.3,25.1-12.7,36.6c-17.4,31.6-44,50.2-79.7,55.2c-30.8,4.4-59.1-2.5-83.5-22.1  c-25.1-20.2-39.7-46.7-41-79c-2.6-64.9-0.5-129.9-1.1-194.8c0-4.2,1.6-5.5,5.6-5.5c14.2,0.2,28.3,0,42.5,0.1c6.9,0,7,0.1,7.1,6.9  c0,28.1,0,56.2,0,84.2c0,2,0,4,0,5.6c1.1,0.8,1.7,0.5,2.1,0.1c17-16.6,38-21.5,60.7-19.8c47.6,3.5,86.7,37.5,97.5,83.9  c0.8,3.2,1.6,6.4,2.4,9.6C2019,192.6,2019,205.6,2019,218.5z M1857,194.8c0.1,22.3,6.7,37.4,20.4,49.4c20.5,18,54.9,15.5,72.3-5.5  c16-19.3,19-40.8,10.1-63.9c-10.6-27.5-42.4-41.4-68.5-29.4C1868.7,155.8,1858.1,174.6,1857,194.8z"></path>	<path class="st0" d="M191.9,364.1c-1.5-1-3.2-1.8-4.6-3c-5.5-4.4-7.2-10.3-5.1-16.4c2.2-6.1,7.3-9.6,14.2-9.7  c29.9-0.1,59.9,0,89.8,0c25.6,0,51.2,0.1,76.8-0.1c3.7,0,6.3,1,8.2,4.3c4.9,8.4,11.6,15.7,15.5,24.8  C321.8,364.1,256.9,364.1,191.9,364.1z"></path>	<path class="st0" d="M1765.2,200.7c0,33.1,0,66.1-0.1,99.2c0,2.5,1.5,6.6-2.4,7.1c-4.3,0.5-9.5,2.4-13-2.3  c-5.2-7.1-10.5-14.1-15.4-21.5c-2.7-4.2-4.8-4.1-8.4-1c-13.3,11.6-28.2,20.8-45.4,25.4c-33.4,9-64.2,2.5-91.8-17.5  c-23.4-17-36.1-41-40.3-69.3c-4.7-31.8-0.3-62,18.4-89.1c30.6-44.5,95.5-63.4,146.7-26.1c5,3.6,10.1,7.1,14.4,11.5  c2.1,2.2,3.4,1.6,5.1-0.5c4.8-6,10.1-11.5,14.6-17.7c3.9-5.5,9.1-5.3,14.7-4.8c3.1,0.3,2.9,2.8,2.9,4.9c0,10.3,0,20.6,0,30.9  C1765.2,153.5,1765.2,177.1,1765.2,200.7z M1655.3,256.6c2.8-0.3,5.7-0.3,8.4-0.8c29.2-5.4,49.2-34.2,45.5-64.8  c-3.3-26.9-30-54.6-61.7-49.2c-16.5,2.8-29.3,10.4-37.4,25.2c-7.2,13.1-8.5,27.2-7,42C1606.1,237,1627.1,256.3,1655.3,256.6z"></path>	<path class="st0" d="M1141.8,194.5c6.8-8.5,13.6-17.1,20.4-25.7c18.6-23.6,37.3-47.3,55.8-71c2.1-2.7,4.5-4.1,8.1-4  c17.3,0.1,34.6,0,52,0.1c1.4,0,3.3-0.5,4.2,0.9c1,1.8-0.8,3-1.8,4.2c-21,26.4-42,52.9-63.2,79.1c-2.9,3.6-3.5,6.2-1,10.5  c21.8,37.7,43.2,75.6,64.8,113.5c2.6,4.6,2.3,5.2-3.1,5.2c-17,0-34-0.1-51,0.1c-4.4,0.1-7-1.4-9.1-5.3  c-11.8-21.6-23.9-43-35.9-64.5c-0.7-1.3-1.5-2.6-2.2-3.9c-1.5-2.9-2.8-2.6-4.6-0.1c-8.1,11-15.8,22.3-24.7,32.6  c-7.8,9-11.1,18.5-10.3,30.3c0.9,12,1.2,10.7-10.5,10.8c-12.5,0.1-25,0-37.5,0c-6.9,0-7-0.1-7-6.9c0-40.6,0-81.1,0-121.7  c0-54.2,0-108.4,0-162.5c0-7.2,0-7.2,7.2-7.2c13.8,0,27.7,0,41.5,0c6.2,0,6.4,0.3,6.4,6.5c0,57.3,0,114.7,0,172c0,2.1,0,4.3,0,6.4  C1140.9,194.2,1141.4,194.4,1141.8,194.5z"></path>	<path class="st0" d="M1295.2,166.8c-1.2-70.9,51.4-136.2,125.3-147.3c42.6-6.4,81.3,3.9,115.2,30.9c2.7,2.2,2.9,3.8,1.2,6.6  c-8.7,14.1-17.4,28.4-25.9,42.6c-2.1,3.5-3.7,2.7-6,0.4c-16.8-16.4-37.4-24.7-60.4-24.7c-34.5,0-62.2,14.7-79.6,44.8  c-28.8,49.7-7.2,110.2,46.8,130.1c33.8,12.5,65.2,6,92.4-18.2c4.4-3.9,4.4-4.1,7.5,1c8.4,13.7,16.7,27.6,25.2,41.3  c1.8,2.8,1.5,4.4-1.2,6.6c-26.5,20.9-56.4,31.7-90.3,32.6c-68.8,1.8-131.4-47.4-146.8-115C1296,187.6,1294.7,176.6,1295.2,166.8z"></path>	<path class="st0" d="M735.7,200.5c0,33.1,0,66.1-0.1,99.2c0,2.6,1.4,5.9-2.2,7.4c-3.8,1.5-11.4,0.1-13.4-2.6  c-4.3-5.7-8.5-11.5-12.5-17.4c-2.3-3.5-4.1-3.6-7.4-0.8c-14.2,12-29.9,21.2-48.6,24.2c-40.7,6.6-82.6-16.8-98.6-54.8  c-5.5-13.1-8.3-26.6-8.3-40.7c0-38.1,0-76.1,0-114.2c0-6.8,0.1-6.9,7-6.9c13.5,0,27,0,40.5,0c6.6,0,6.8,0.2,6.8,6.7  c0,34.9,0,69.8,0.1,104.7c0,7.1,0.2,14.3,2.1,21.3c4.4,16,14.4,26.6,31,29.5c17.5,3.1,31-4,40.6-18.3c5.3-7.9,8-16.6,8-26.3  c-0.1-36.7,0-73.5,0-110.2c0-7.4,0-7.4,7.6-7.4c13.7,0,27.3,0,41,0c6.3,0,6.5,0.2,6.5,6.5C735.7,133.7,735.7,167.1,735.7,200.5z"></path>	<path class="st0" d="M969.5,311.3c-53.2,0.1-99.2-38.3-107.5-90.8c-8.1-51,17.4-104.7,67-126.1c35.3-15.2,69.3-10.7,101.1,10.7  c10.9,7.3,19.7,16.8,26.9,27.8c1.8,2.7,1.7,4.5-0.6,6.8c-11.4,11.2-22.7,22.5-33.9,33.9c-2.4,2.4-3.5,2.7-5.2-0.8  c-9.2-19.4-24.5-30.4-46.1-31.4c-14.5-0.7-27.6,4.4-37.3,15.1c-17.5,19.3-22.5,42.2-13.5,66.7c7.2,19.6,22.6,30.8,43.3,33  c21.2,2.3,38.5-5.6,50.7-23.4c0.9-1.4,1.8-2.8,2.6-4.3c1.1-2.1,2.3-2.6,4.2-0.8c11.9,11.9,23.7,23.8,35.6,35.7  c2.1,2.1,1,3.9-0.4,5.7c-17.9,22.6-41,36.6-69.5,41.4c-2.6,0.4-5.3,0.8-7.9,1C975.8,311.4,972.6,311.3,969.5,311.3z"></path>	<path class="st0" d="M776.5,200.6c0-33.2,0-66.5,0-99.7c0-6.9,0.1-7.1,6.9-7.1c14.2,0,28.3,0.1,42.5-0.1c4.3-0.1,5.9,1.3,5.9,5.7  c-0.1,67.5-0.1,134.9,0,202.4c0,4.5-1.8,5.7-6,5.6c-14-0.2-28-0.1-42-0.1c-7.3,0-7.3,0-7.3-7.1C776.4,267,776.5,233.8,776.5,200.6z  "></path>	<path class="st0" d="M106.4,202.6c-30,0-60,0-89.9,0c-8.7,0-13.9-3.7-15.9-10.8c-2.4-8.7,3.7-17.5,12.7-18.2c1.3-0.1,2.7-0.1,4-0.1  c58.5,0,116.9,0,175.4,0c7.2,0,7.7,0.3,8.1,7.4c0.3,5.3,1.1,10.6,2.1,15.8c1,5.7,0.9,6-5,6C167.4,202.7,136.9,202.6,106.4,202.6z"></path>	<path class="st0" d="M144,85.7c23.3,0,46.6,0,69.9,0c6,0,6.3,0.4,3.6,5.8c-3.2,6.2-6,12.6-8.1,19.3c-0.9,3-2.7,4.2-5.9,4.2  c-43.1-0.1-86.2,0-129.3-0.1c-8.3,0-15.4-7.3-15.1-14.8c0.3-8.3,6.5-14.2,15.5-14.2C97.8,85.6,120.9,85.7,144,85.7z"></path>	<path class="st0" d="M840.7,36.7c-0.1,19.9-16.9,36.4-37,36.2c-20.3-0.3-36.3-16.6-36.2-36.8c0.1-20.6,16.1-36.2,37.1-36.1  C824.9,0.1,840.8,16.3,840.7,36.7z"></path>	<path class="st0" d="M185.9,289.3c-19.8,0-39.6,0-59.4,0c-2.8,0-5.7-0.1-8.4-0.9c-6.3-1.9-10.7-7.7-10.6-14.1  c0.1-6.2,4.3-12,10.3-13.9c2.4-0.8,4.9-0.9,7.4-0.9c32.5,0,64.9,0.1,97.4-0.1c4.3,0,7,1.3,9.5,4.9c4.8,7.2,10.6,13.6,16.8,19.7  c1.2,1.2,3.7,2.4,3,4.2c-0.9,2.2-3.5,1.2-5.4,1.2C226.2,289.3,206,289.3,185.9,289.3z"></path>	<path class="st0" d="M285,19.9c-8,5.1-15.7,9.8-22.5,15.7c-2.8,2.4-6,4.4-8.3,7.2c-4.1,5-9.3,5.5-15.2,5.4  c-21.8-0.2-43.6,0-65.4-0.1c-12-0.1-19-12-13.1-22.1c3.1-5.2,8-7,13.9-7c35.1,0.1,70.3,0,105.4,0.1C281.3,18.9,282.8,18.6,285,19.9  z"></path>	<path class="st0" d="M369,121.6c22.1,0.1,39,17.4,38.9,39.9c-0.1,21.5-18,39.3-39.6,39.1c-22-0.1-39.7-18.2-39.6-40.3  C328.9,138.4,346.5,121.5,369,121.6z"></path></g></svg>